<svg width="55" height="55" fill="none" xmlns="http://www.w3.org/2000/svg"><path fill-rule="evenodd" clip-rule="evenodd" d="M29.288 6.204a4.806 4.806 0 0 0-2.79.005L13.21 10.274c-1.912.584-3.21 2.286-3.21 4.209v18.066c0 1.746.528 3.565 1.766 5.06 4.528 5.47 11.116 9.923 13.89 11.68a4.626 4.626 0 0 0 5.309-.267C33.282 47.203 38.47 43 43.507 38.005A8.418 8.418 0 0 0 46 32.013V14.49c0-1.929-1.306-3.634-3.226-4.214l-13.486-4.07Zm-1.386 4.214 13.486 4.07v17.525a4.098 4.098 0 0 1-1.2 2.923c-4.807 4.769-9.787 8.814-12.075 10.612-2.737-1.739-8.724-5.842-12.733-10.685-.49-.591-.767-1.398-.767-2.314V14.483l13.289-4.065Z" fill="#000"/><path d="m28.384 31.967 9.826-9.412-2.837-2.717-9.499 9.098-4.082-3.91-2.837 2.717 4.41 4.224c1.386 1.328 3.633 1.328 5.019 0Z" fill="#A88768"/></svg>