<svg width="44" height="44" fill="none" xmlns="http://www.w3.org/2000/svg"><g clip-path="url(#a)"><path d="m22 35.314 8.25-8.201a11.577 11.577 0 0 0 3.193-5.938c.45-2.25.218-4.582-.664-6.701a11.613 11.613 0 0 0-4.298-5.205A11.716 11.716 0 0 0 22 7.314c-2.307 0-4.563.68-6.482 1.955a11.613 11.613 0 0 0-4.296 5.205 11.535 11.535 0 0 0-.665 6.7 11.577 11.577 0 0 0 3.193 5.939L22 35.314ZM22 40 11.393 29.456a14.885 14.885 0 0 1-4.105-7.635 14.83 14.83 0 0 1 .854-8.616 14.93 14.93 0 0 1 5.524-6.692A15.063 15.063 0 0 1 22 4c2.967 0 5.867.875 8.334 2.513a14.931 14.931 0 0 1 5.524 6.692 14.83 14.83 0 0 1 .854 8.616 14.886 14.886 0 0 1-4.105 7.635L22 40Zm0-17.775c.884 0 1.732-.349 2.357-.97a3.304 3.304 0 0 0 0-4.687 3.343 3.343 0 0 0-4.714 0 3.304 3.304 0 0 0 0 4.687c.625.621 1.473.97 2.357.97Zm0 3.314a6.687 6.687 0 0 1-4.714-1.941 6.608 6.608 0 0 1-1.953-4.686c0-1.758.703-3.444 1.953-4.687A6.687 6.687 0 0 1 22 12.285c1.768 0 3.464.697 4.714 1.94a6.607 6.607 0 0 1 1.953 4.687 6.608 6.608 0 0 1-1.953 4.686A6.687 6.687 0 0 1 22 25.539Z" fill="#A78667"/></g><defs><clipPath id="a"><path fill="#fff" d="M0 0h44v44H0z"/></clipPath></defs></svg>