<svg width="55" height="55" fill="none" xmlns="http://www.w3.org/2000/svg"><path d="m27 6 8.146 12.247L49 22.425l-8.819 11.747L40.596 49 27 44.012 13.405 49l.414-14.828L5 22.425l13.854-4.178L27 6Zm0 7.02-5.74 8.633-9.764 2.941 6.217 8.276-.295 10.449L27 39.805l9.58 3.514-.293-10.449 6.215-8.276-9.762-2.941L27 13.02Z" fill="#000"/><path d="M24.274 31.58a4.018 4.018 0 0 1-1.13-2.8H19.29c0 2.101.812 4.116 2.258 5.602A7.607 7.607 0 0 0 27 36.703a7.607 7.607 0 0 0 5.452-2.32 8.036 8.036 0 0 0 2.259-5.603h-3.856c0 1.05-.406 2.058-1.129 2.8A3.803 3.803 0 0 1 27 32.742a3.803 3.803 0 0 1-2.726-1.16Z" fill="#A88768"/></svg>