<svg width="55" height="55" fill="none" xmlns="http://www.w3.org/2000/svg"><path d="M20.917 37.967a6.99 6.99 0 0 1-6.925 6.004 6.996 6.996 0 0 1-6.924-6.004H5v-23.97A1.997 1.997 0 0 1 6.998 12h27.977a1.999 1.999 0 0 1 1.998 1.997v3.995h5.995l5.996 8.102v11.873h-4.067a6.99 6.99 0 0 1-6.924 6.004 6.996 6.996 0 0 1-6.925-6.004H20.917Zm12.06-21.972H8.997v16.08a6.993 6.993 0 0 1 9.213-.686 6.99 6.99 0 0 1 2.103 2.583h11.339a7.045 7.045 0 0 1 1.325-1.898v-16.08Zm3.997 11.984h7.993v-.569l-4.013-5.423h-3.98v5.992Zm.999 11.985a2.999 2.999 0 0 0 2.998-2.997 2.996 2.996 0 0 0-2.998-2.997 3 3 0 0 0-2.999 2.997 2.996 2.996 0 0 0 2.999 2.997ZM16.99 36.968a2.996 2.996 0 0 0-4.145-2.768 2.997 2.997 0 1 0 4.145 2.768Z" fill="#000"/><path fill-rule="evenodd" clip-rule="evenodd" d="m49 26.114-6.03-8.126h-9.993v14.09s-.845.792-1.478 1.89c0 0-.997 1.53-.456 4.023.42 3.55 3.435 6.02 7.041 6.009 5.91-.02 6.897-6.01 6.897-6.01H49V26.115Zm-8.05 10.865c0 1.67-1.291 2.974-2.961 2.974s-3-1.304-3-2.974c0-1.67 1.34-3.01 3.011-3.01 1.67 0 2.95 1.34 2.95 3.01Zm-3.98-14.988h3.982l4.02 5.427v.555H36.97v-5.982Z" fill="#A88768"/></svg>